<?xml version="1.0" encoding="utf-8"?>
<svg version="1.1" id="Layer_1" xmlns="http://www.w3.org/2000/svg" xmlns:xlink="http://www.w3.org/1999/xlink" x="0px" y="0px"
	 width="400px" height="64px" viewBox="0 0.5 400 64" enable-background="new 0 0.5 400 64" xml:space="preserve">
<path fill="#F4F4F4" d="M263.982,0.5l82.184,47.801c0,0,11.458-20.705,21.098-47.801H263.982z"/>
<path fill="#F4F4F4" d="M36.49,0.5l23.677,14.133c0.798-4.786,1.762-9.509,2.846-14.133H36.49z"/>
<path fill="#F4F4F4" d="M54.962,64.5c0.305-15.645,1.705-26.201,1.705-26.201L6,8.299c0.467,20.682,4.166,39.546,9.408,56.201
	H54.962z"/>
<path fill="#F4F4F4" d="M102.224,64.5l-13.557-8.201c-0.3,2.807-0.543,5.522-0.765,8.201H102.224z"/>
<path fill="#F4F4F4" d="M175.347,64.5l36.861-64H101.807c-5.676,18.259-8.974,32.799-8.974,32.799L146.66,64.5H175.347z"/>
<path fill="#F4F4F4" d="M327.497,64.5l-81.664-48.201c0,0-14.77,25.702-27.756,48.201H327.497z"/>
<path fill="#F4F4F4" d="M400,64.5V17.966c0,0-11.802,31.56-19.722,46.534H400z"/>
</svg>
