<?xml version="1.0" encoding="utf-8"?>
<!-- Generator: Adobe Illustrator 14.0.0, SVG Export Plug-In . SVG Version: 6.00 Build 43363)  -->
<!DOCTYPE svg PUBLIC "-//W3C//DTD SVG 1.1//EN" "http://www.w3.org/Graphics/SVG/1.1/DTD/svg11.dtd">
<svg version="1.1" id="Layer_1" xmlns="http://www.w3.org/2000/svg" xmlns:xlink="http://www.w3.org/1999/xlink" x="0px" y="0px"
	 width="48.761px" height="43.266px" viewBox="0 0 48.761 43.266" enable-background="new 0 0 48.761 43.266" xml:space="preserve">
<rect x="-347.833" y="-252.641" fill="#FFFFFF" width="640" height="480"/>
<g>
	<g>
		<g>
			<g>
				<g>
					
						<radialGradient id="SVGID_1_" cx="25.6318" cy="25.3857" r="22.9881" gradientTransform="matrix(-0.0164 -0.9999 0.8599 -0.0141 4.2232 51.372)" gradientUnits="userSpaceOnUse">
						<stop  offset="0.5879" style="stop-color:#FFFFFF"/>
						<stop  offset="0.6564" style="stop-color:#FBFBFB"/>
						<stop  offset="0.7294" style="stop-color:#EEEEEE"/>
						<stop  offset="0.8042" style="stop-color:#D9D9D9"/>
						<stop  offset="0.8667" style="stop-color:#C2C1C1"/>
					</radialGradient>
					<path fill="url(#SVGID_1_)" d="M4.8,42.553c-1.64-0.001-2.859-0.544-3.433-1.528c-0.576-0.981-0.44-2.293,0.382-3.693
						L21.335,3.256c0.764-1.298,2.105-2.168,3.342-2.168c1.149,0.001,2.234,0.771,3.054,2.17l19.56,34.099
						c0.744,1.273,0.793,2.479,0.146,3.584c-0.563,0.962-2.015,1.584-3.697,1.584L4.8,42.553z"/>
					<path fill="#808080" d="M24.677,1.338c1.057,0.001,2.064,0.727,2.838,2.046L47.073,37.48c0.771,1.319,0.676,2.431,0.146,3.333
						c-0.529,0.903-1.936,1.461-3.481,1.461c-0.001,0-0.003,0-0.004,0L4.8,42.303c-1.545-0.001-2.688-0.496-3.217-1.404
						C1.056,40,1.189,38.777,1.965,37.458L21.552,3.381C22.327,2.063,23.62,1.338,24.677,1.338 M24.677,0.838L24.677,0.838
						c-1.321,0-2.751,0.92-3.556,2.289L1.531,37.209c-0.868,1.478-1.004,2.879-0.38,3.942c0.62,1.063,1.916,1.65,3.648,1.651
						l38.935-0.028c1.773,0,3.31-0.671,3.917-1.708c0.687-1.171,0.636-2.498-0.146-3.838L27.948,3.135
						C27.08,1.653,25.919,0.839,24.677,0.838L24.677,0.838z"/>
				</g>
			</g>
		</g>
		<g>
			<g>
				<g>
					<g>
						<g>
							<g>
								<g>
									<g>
										<g>
											<path fill="#8C6239" d="M22.675,4.364c0,0,0.01-0.037,0.014-0.047c-0.015,0.035-0.225,0.477-2.727,4.829
												c-1.251,2.177-3.074,5.332-5.733,9.902c-2.659,4.571-6.153,10.559-10.745,18.4c-0.409,0.696-0.847,1.5-0.847,2.183
												c-0.001,0.252,0.058,0.473,0.174,0.672c0.398,0.68,1.402,0.676,2.565,0.671h0.327l18.655,0.01l18.654,0.011
												c1.407,0.001,2.517-0.059,2.939-0.779c0.413-0.703,0.029-1.417-0.556-2.497l-0.121-0.22l-9.347-16.544L26.581,4.41
												c-0.674-1.145-1.039-1.695-1.967-1.695C23.684,2.714,23.347,3.22,22.675,4.364z"/>
										</g>
									</g>
								</g>
							</g>
						</g>
					</g>
				</g>
				
					<radialGradient id="SVGID_2_" cx="39.7432" cy="36.8867" r="33.6934" gradientTransform="matrix(1.0147 0 0 1.0144 0.9535 -0.9144)" gradientUnits="userSpaceOnUse">
					<stop  offset="0.0848" style="stop-color:#916637"/>
					<stop  offset="1" style="stop-color:#916836"/>
				</radialGradient>
				<path fill="url(#SVGID_2_)" d="M22.706,4.325c-0.014,0.033-0.361,0.709-2.744,4.854c-1.191,2.073-3.231,5.603-5.764,9.955
					c-2.424,4.167-6.027,10.349-10.127,17.352c-0.194,0.332-0.386,0.667-0.575,1.003c-0.393,0.701-0.778,1.495-0.746,2.154
					c0.012,0.242,0.079,0.45,0.197,0.643c0.393,0.64,1.448,0.644,2.556,0.64h0.325l18.532,0.009l18.526,0.011
					c1.34,0.001,2.507-0.068,2.932-0.742c0.431-0.684,0.12-1.38-0.438-2.451c0-0.004-0.116-0.218-0.117-0.223
					c-0.002-0.013-0.437-0.787-0.445-0.802l-8.913-15.776L26.588,4.46c-0.241-0.409-0.467-0.784-0.668-1.037
					c-0.352-0.441-0.71-0.664-1.28-0.672c-0.921-0.015-1.279,0.482-1.945,1.617C22.693,4.368,22.702,4.334,22.706,4.325z"/>
				
					<radialGradient id="SVGID_3_" cx="39.7764" cy="37.2188" r="33.0993" gradientTransform="matrix(1.0293 1.000000e-004 -1.000000e-004 1.0287 0.2657 -1.8264)" gradientUnits="userSpaceOnUse">
					<stop  offset="0.0848" style="stop-color:#966935"/>
					<stop  offset="1" style="stop-color:#966E34"/>
				</radialGradient>
				<path fill="url(#SVGID_3_)" d="M22.724,4.333c-0.014,0.032-0.499,0.942-2.763,4.88c-1.132,1.97-3.388,5.874-5.794,10.009
					c-2.303,3.958-6.199,10.65-10.094,17.303c-0.195,0.334-0.384,0.669-0.564,1.005c-0.379,0.704-0.713,1.487-0.646,2.126
					c0.024,0.23,0.1,0.428,0.221,0.614c0.388,0.598,1.494,0.611,2.547,0.606h0.323l18.409,0.009l18.397,0.01
					c1.273,0.001,2.499-0.078,2.923-0.705c0.45-0.666,0.212-1.342-0.319-2.404c0-0.009-0.11-0.216-0.111-0.225
					c-0.005-0.027-0.424-0.777-0.44-0.808l-8.931-15.807L26.595,4.51c-0.229-0.389-0.473-0.794-0.662-1.034
					c-0.351-0.444-0.708-0.672-1.269-0.688c-0.91-0.027-1.289,0.459-1.95,1.584C22.713,4.372,22.721,4.341,22.724,4.333z"/>
				
					<radialGradient id="SVGID_4_" cx="38.2344" cy="37.541" r="32.5269" gradientTransform="matrix(1.044 1.000000e-004 -1.000000e-004 1.0431 1.2197 -2.7399)" gradientUnits="userSpaceOnUse">
					<stop  offset="0.0848" style="stop-color:#9B6D33"/>
					<stop  offset="1" style="stop-color:#9B7531"/>
				</radialGradient>
				<path fill="url(#SVGID_4_)" d="M22.74,4.341c-0.012,0.03-0.635,1.175-2.779,4.905c-1.072,1.866-3.545,6.145-5.824,10.062
					c-2.182,3.75-6.371,10.952-10.062,17.255c-0.196,0.336-0.382,0.672-0.554,1.007c-0.363,0.708-0.646,1.48-0.545,2.097
					c0.036,0.222,0.121,0.406,0.244,0.586c0.381,0.558,1.54,0.579,2.537,0.575h0.321l18.286,0.009l18.27,0.009
					c1.206,0.001,2.495-0.087,2.915-0.668c0.471-0.65,0.303-1.304-0.201-2.358c0-0.013-0.105-0.215-0.107-0.228
					c-0.007-0.04-0.409-0.767-0.435-0.812l-8.948-15.837L26.602,4.56c-0.217-0.368-0.477-0.802-0.656-1.031
					c-0.35-0.446-0.705-0.681-1.256-0.705c-0.9-0.041-1.301,0.437-1.957,1.552C22.731,4.377,22.738,4.347,22.74,4.341z"/>
				
					<radialGradient id="SVGID_5_" cx="36.7393" cy="38.6357" r="31.9768" gradientTransform="matrix(1.0587 1.000000e-004 -1.000000e-004 1.0574 2.1737 -4.4748)" gradientUnits="userSpaceOnUse">
					<stop  offset="0.0848" style="stop-color:#A17131"/>
					<stop  offset="1" style="stop-color:#A17B2E"/>
				</radialGradient>
				<path fill="url(#SVGID_5_)" d="M22.758,4.349c-0.012,0.028-0.772,1.407-2.798,4.931c-1.013,1.763-3.702,6.415-5.854,10.115
					c-2.061,3.542-6.543,11.254-10.028,17.206c-0.197,0.338-0.379,0.675-0.542,1.01c-0.347,0.712-0.581,1.47-0.445,2.067
					c0.048,0.211,0.142,0.384,0.267,0.558c0.371,0.519,1.588,0.547,2.529,0.543h0.318l18.163,0.008l18.142,0.009
					c1.14,0,2.493-0.096,2.906-0.631c0.492-0.637,0.395-1.267-0.082-2.313c0-0.017-0.1-0.212-0.103-0.229
					c-0.01-0.054-0.396-0.757-0.431-0.816l-8.965-15.867L26.608,4.609c-0.205-0.348-0.483-0.811-0.651-1.027
					c-0.349-0.448-0.701-0.69-1.243-0.723c-0.889-0.054-1.311,0.413-1.962,1.519C22.75,4.381,22.757,4.354,22.758,4.349z"/>
				
					<radialGradient id="SVGID_6_" cx="36.0596" cy="38.9307" r="31.4452" gradientTransform="matrix(1.0733 1.000000e-004 -1.000000e-004 1.0718 2.3057 -5.3882)" gradientUnits="userSpaceOnUse">
					<stop  offset="0.0848" style="stop-color:#A6742F"/>
					<stop  offset="1" style="stop-color:#A6812B"/>
				</radialGradient>
				<path fill="url(#SVGID_6_)" d="M22.775,4.356c-0.011,0.026-0.909,1.641-2.815,4.956c-0.953,1.659-3.859,6.687-5.885,10.168
					c-1.939,3.334-6.716,11.556-9.996,17.158c-0.198,0.34-0.377,0.677-0.531,1.012c-0.331,0.717-0.516,1.461-0.345,2.039
					c0.06,0.2,0.163,0.36,0.29,0.528c0.361,0.479,1.634,0.515,2.52,0.511h0.316l18.04,0.008l18.014,0.008
					c1.072,0.001,2.493-0.103,2.898-0.594c0.516-0.625,0.485-1.229,0.036-2.267c-0.001-0.021-0.095-0.21-0.099-0.232
					c-0.012-0.066-0.382-0.746-0.425-0.82l-8.982-15.897L26.615,4.659c-0.193-0.327-0.487-0.82-0.646-1.024
					c-0.348-0.45-0.698-0.698-1.23-0.739c-0.879-0.067-1.322,0.391-1.968,1.486C22.77,4.385,22.774,4.36,22.775,4.356z"/>
				
					<radialGradient id="SVGID_7_" cx="35.4316" cy="39.2188" r="30.9468" gradientTransform="matrix(1.088 2.000000e-004 -2.000000e-004 1.0861 2.4403 -6.3012)" gradientUnits="userSpaceOnUse">
					<stop  offset="0.0848" style="stop-color:#AB782C"/>
					<stop  offset="1" style="stop-color:#AB8729"/>
				</radialGradient>
				<path fill="url(#SVGID_7_)" d="M22.793,4.364c-0.011,0.025-1.047,1.873-2.834,4.982c-0.894,1.555-4.016,6.956-5.915,10.221
					c-1.817,3.125-6.888,11.857-9.962,17.108c-0.2,0.342-0.375,0.681-0.521,1.015c-0.315,0.72-0.453,1.45-0.244,2.011
					C3.387,39.889,3.5,40.038,3.63,40.2c0.353,0.438,1.68,0.483,2.511,0.479h0.314l17.917,0.007l17.886,0.008
					c1.005,0.001,2.587-0.042,2.889-0.557c0.647-0.502,0.577-1.191,0.154-2.221c0-0.025-0.089-0.208-0.094-0.234
					c-0.013-0.08-0.367-0.736-0.419-0.825l-9.001-15.929l-9.166-16.22c-0.181-0.307-0.492-0.829-0.639-1.021
					c-0.347-0.453-0.696-0.706-1.219-0.755c-0.869-0.081-1.333,0.366-1.973,1.452C22.788,4.389,22.793,4.367,22.793,4.364z"/>
				
					<radialGradient id="SVGID_8_" cx="34.0488" cy="39.5" r="30.4554" gradientTransform="matrix(1.1027 2.000000e-004 -2.000000e-004 1.1005 3.3933 -7.2147)" gradientUnits="userSpaceOnUse">
					<stop  offset="0.0848" style="stop-color:#B07C2A"/>
					<stop  offset="1" style="stop-color:#B08E26"/>
				</radialGradient>
				<path fill="url(#SVGID_8_)" d="M22.811,4.372c-0.01,0.023-1.184,2.105-2.852,5.008c-0.834,1.451-4.173,7.227-5.945,10.273
					c-1.697,2.917-7.061,12.159-9.93,17.061c-0.201,0.344-0.373,0.684-0.511,1.017c-0.301,0.725-0.39,1.44-0.144,1.982
					c0.08,0.177,0.204,0.313,0.337,0.471c0.339,0.401,1.726,0.45,2.501,0.447H6.58l17.794,0.006l17.758,0.008
					c0.938,0,2.599-0.039,2.881-0.52c0.687-0.469,0.668-1.154,0.272-2.175c0-0.029-0.084-0.206-0.089-0.237
					c-0.016-0.094-0.354-0.726-0.414-0.83l-9.019-15.958L26.628,4.759c-0.168-0.286-0.496-0.838-0.633-1.019
					c-0.345-0.455-0.693-0.715-1.206-0.771c-0.859-0.095-1.344,0.344-1.979,1.42C22.807,4.394,22.811,4.373,22.811,4.372z"/>
				
					<radialGradient id="SVGID_9_" cx="33.4434" cy="40.5127" r="29.9826" gradientTransform="matrix(1.1173 2.000000e-004 -2.000000e-004 1.1148 3.5253 -8.9486)" gradientUnits="userSpaceOnUse">
					<stop  offset="0.0848" style="stop-color:#B57F28"/>
					<stop  offset="1" style="stop-color:#B59423"/>
				</radialGradient>
				<path fill="url(#SVGID_9_)" d="M22.827,4.38c-0.009,0.021-1.319,2.339-2.868,5.033c-0.774,1.348-4.33,7.498-5.977,10.327
					c-1.575,2.708-7.231,12.46-9.896,17.012c-0.202,0.346-0.37,0.687-0.5,1.019c-0.285,0.728-0.327,1.429-0.043,1.953
					c0.091,0.166,0.196,0.319,0.36,0.442c0.246,0.421,1.771,0.418,2.491,0.415h0.311l17.671,0.007l17.63,0.006
					c0.871,0.001,2.61-0.036,2.872-0.482c0.727-0.435,0.76-1.115,0.392-2.128c-0.001-0.034-0.079-0.205-0.085-0.24
					c-0.018-0.106-0.34-0.715-0.408-0.834L35.74,20.92L26.635,4.809c-0.156-0.266-0.501-0.848-0.627-1.016
					c-0.344-0.457-0.69-0.724-1.194-0.788c-0.849-0.108-1.354,0.321-1.984,1.387C22.826,4.397,22.828,4.38,22.827,4.38z"/>
				
					<radialGradient id="SVGID_10_" cx="32.8545" cy="40.0391" r="29.5242" gradientTransform="matrix(1.132 3.000000e-004 -3.000000e-004 1.1292 3.66 -9.0411)" gradientUnits="userSpaceOnUse">
					<stop  offset="0.0848" style="stop-color:#BA8326"/>
					<stop  offset="1" style="stop-color:#BA9A21"/>
				</radialGradient>
				<path fill="url(#SVGID_10_)" d="M22.845,4.388c-0.008,0.021-1.457,2.571-2.887,5.059c-0.715,1.244-4.486,7.769-6.006,10.38
					c-1.454,2.5-7.404,12.763-9.864,16.964c-0.203,0.348-0.367,0.689-0.489,1.021c-0.27,0.732-0.269,1.419,0.058,1.925
					c0.1,0.154,0.213,0.3,0.384,0.413c0.228,0.389,1.817,0.387,2.482,0.384h0.309l17.548,0.006l17.501,0.006
					c0.804,0.001,2.622-0.033,2.864-0.445c0.765-0.401,0.851-1.078,0.509-2.082c0-0.038-0.073-0.203-0.08-0.242
					c-0.02-0.12-0.325-0.705-0.402-0.839l-9.054-16.02L26.642,4.858c-0.145-0.245-0.505-0.857-0.621-1.013
					c-0.344-0.46-0.689-0.732-1.182-0.805C24,2.918,23.473,3.339,22.849,4.396C22.845,4.401,22.847,4.387,22.845,4.388z"/>
				
					<radialGradient id="SVGID_11_" cx="31.5684" cy="41.0195" r="29.0877" gradientTransform="matrix(1.1467 3.000000e-004 -3.000000e-004 1.1435 4.614 -10.7751)" gradientUnits="userSpaceOnUse">
					<stop  offset="0.0848" style="stop-color:#BF8724"/>
					<stop  offset="1" style="stop-color:#BFA01E"/>
				</radialGradient>
				<path fill="url(#SVGID_11_)" d="M22.862,4.396c-0.008,0.019-1.594,2.804-2.904,5.084c-0.655,1.141-4.644,8.039-6.037,10.434
					c-1.333,2.291-7.576,13.063-9.831,16.915c-0.204,0.35-0.365,0.692-0.479,1.022C3.358,38.587,3.4,39.259,3.77,39.747
					c0.108,0.144,0.23,0.28,0.407,0.385c0.208,0.355,1.863,0.354,2.473,0.352h0.307l17.425,0.005l17.373,0.006
					c0.737,0,2.634-0.031,2.855-0.408c0.805-0.368,0.942-1.041,0.628-2.036c0-0.043-0.068-0.201-0.075-0.245
					c-0.022-0.134-0.312-0.694-0.397-0.844l-9.071-16.05L26.648,4.908c-0.133-0.225-0.51-0.867-0.615-1.01
					c-0.342-0.462-0.687-0.741-1.17-0.821c-0.828-0.137-1.376,0.275-1.995,1.321C22.863,4.405,22.864,4.394,22.862,4.396z"/>
				
					<radialGradient id="SVGID_12_" cx="31.0273" cy="41.2646" r="28.6551" gradientTransform="matrix(1.1613 3.000000e-004 -3.000000e-004 1.1579 4.745 -11.6895)" gradientUnits="userSpaceOnUse">
					<stop  offset="0.0848" style="stop-color:#C58A22"/>
					<stop  offset="1" style="stop-color:#C5A71B"/>
				</radialGradient>
				<path fill="url(#SVGID_12_)" d="M22.88,4.403c-0.007,0.017-1.731,3.037-2.923,5.109c-0.596,1.036-4.801,8.311-6.066,10.486
					c-1.212,2.084-7.749,13.366-9.799,16.867c-0.204,0.352-0.361,0.694-0.467,1.025c-0.235,0.741-0.155,1.399,0.257,1.867
					c0.117,0.133,0.249,0.261,0.431,0.355c0.19,0.324,1.911,0.322,2.465,0.319h0.304l17.302,0.005l17.245,0.005
					c0.67,0.001,2.646-0.027,2.848-0.371c0.843-0.335,1.033-1.003,0.746-1.99c-0.001-0.046-0.063-0.198-0.071-0.247
					c-0.024-0.146-0.298-0.685-0.393-0.848l-9.088-16.08L26.655,4.959c-0.12-0.205-0.515-0.877-0.61-1.007
					c-0.342-0.464-0.683-0.752-1.156-0.839c-0.817-0.15-1.388,0.252-2.002,1.289C22.883,4.41,22.883,4.399,22.88,4.403z"/>
				
					<radialGradient id="SVGID_13_" cx="29.7988" cy="42.2061" r="28.2442" gradientTransform="matrix(1.176 3.000000e-004 -3.000000e-004 1.1722 5.7 -13.4234)" gradientUnits="userSpaceOnUse">
					<stop  offset="0.0848" style="stop-color:#CA8E20"/>
					<stop  offset="1" style="stop-color:#CAAD18"/>
				</radialGradient>
				<path fill="url(#SVGID_13_)" d="M22.897,4.411c-0.007,0.015-1.868,3.27-2.94,5.135c-0.536,0.933-4.958,8.581-6.098,10.54
					c-1.091,1.875-7.921,13.667-9.766,16.818c-0.205,0.354-0.359,0.697-0.456,1.027c-0.22,0.745-0.099,1.392,0.357,1.839
					c0.126,0.123,0.267,0.241,0.454,0.327c0.171,0.291,1.957,0.289,2.455,0.287h0.302l17.179,0.004l17.117,0.005
					c0.604,0,2.658-0.025,2.839-0.334c0.883-0.302,1.125-0.966,0.865-1.944c-0.001-0.051-0.058-0.196-0.066-0.25
					c-0.027-0.16-0.284-0.674-0.388-0.853l-9.105-16.11L26.662,5.009c-0.108-0.185-0.519-0.887-0.604-1.004
					c-0.341-0.466-0.68-0.761-1.145-0.855c-0.807-0.164-1.397,0.229-2.007,1.256C22.901,4.414,22.9,4.406,22.897,4.411z"/>
				
					<radialGradient id="SVGID_14_" cx="29.2959" cy="41.7363" r="27.8517" gradientTransform="matrix(1.1907 4.000000e-004 -4.000000e-004 1.1866 5.8327 -13.5149)" gradientUnits="userSpaceOnUse">
					<stop  offset="0.0848" style="stop-color:#CF921E"/>
					<stop  offset="1" style="stop-color:#CFB316"/>
				</radialGradient>
				<path fill="url(#SVGID_14_)" d="M22.915,4.419c-0.006,0.014-2.006,3.502-2.959,5.16c-0.477,0.829-5.114,8.852-6.127,10.593
					c-0.97,1.667-8.1,13.966-9.733,16.771c-0.207,0.355-0.356,0.7-0.445,1.029c-0.203,0.75-0.045,1.387,0.458,1.811
					c0.134,0.112,0.283,0.222,0.478,0.298c0.152,0.259,2.003,0.258,2.446,0.256h0.3l17.056,0.003l16.988,0.005
					c0.536,0,2.67-0.022,2.831-0.297c0.921-0.269,1.216-0.929,0.982-1.898c0-0.055-0.052-0.194-0.062-0.252
					c-0.029-0.174-0.27-0.664-0.382-0.857l-9.123-16.141l-8.954-15.84c-0.097-0.164-0.522-0.896-0.599-1.001
					c-0.34-0.468-0.678-0.77-1.132-0.872c-0.797-0.18-1.409,0.206-2.013,1.224C22.92,4.418,22.919,4.413,22.915,4.419z"/>
				
					<radialGradient id="SVGID_15_" cx="28.8096" cy="42.6514" r="27.4628" gradientTransform="matrix(1.2053 4.000000e-004 -4.000000e-004 1.2009 5.9656 -15.2498)" gradientUnits="userSpaceOnUse">
					<stop  offset="0.0848" style="stop-color:#D4951C"/>
					<stop  offset="1" style="stop-color:#D4B913"/>
				</radialGradient>
				<path fill="url(#SVGID_15_)" d="M22.932,4.427c-0.005,0.012-2.142,3.735-2.976,5.186c-0.417,0.726-5.271,9.123-6.158,10.646
					c-0.848,1.458-8.271,14.267-9.7,16.722c-0.208,0.356-0.354,0.703-0.435,1.031c-0.187,0.754,0.01,1.38,0.559,1.781
					c0.142,0.104,0.301,0.203,0.501,0.27c0.133,0.227,2.049,0.226,2.437,0.224h0.298L24.39,40.29l16.86,0.003
					c0.47,0.001,2.682-0.02,2.822-0.26c0.961-0.234,1.308-0.89,1.102-1.852c-0.001-0.06-0.047-0.193-0.058-0.255
					c-0.031-0.187-0.256-0.653-0.376-0.861L35.6,20.894L26.676,5.108c-0.085-0.144-0.527-0.906-0.593-0.998
					c-0.339-0.471-0.675-0.779-1.12-0.889c-0.786-0.193-1.42,0.184-2.018,1.19C22.939,4.422,22.937,4.42,22.932,4.427z"/>
				
					<radialGradient id="SVGID_16_" cx="27.6592" cy="42.8652" r="27.0885" gradientTransform="matrix(1.22 4.000000e-004 -4.000000e-004 1.2153 6.9206 -16.1633)" gradientUnits="userSpaceOnUse">
					<stop  offset="0.0848" style="stop-color:#D9991A"/>
					<stop  offset="1" style="stop-color:#D9C010"/>
				</radialGradient>
				<path fill="url(#SVGID_16_)" d="M22.949,4.435c-0.004,0.01-2.278,3.968-2.993,5.211c-0.357,0.622-5.429,9.394-6.188,10.699
					C13.04,21.595,5.325,34.914,4.1,37.019c-0.209,0.358-0.351,0.706-0.424,1.033c-0.171,0.76,0.065,1.377,0.659,1.753
					c0.149,0.095,0.318,0.184,0.524,0.241c0.113,0.194,2.095,0.192,2.427,0.191h0.296l16.81,0.003l16.732,0.003
					c0.402,0,2.693-0.017,2.814-0.223c1-0.201,1.398-0.853,1.22-1.806c-0.001-0.063-0.042-0.191-0.053-0.258
					c-0.034-0.2-0.242-0.643-0.371-0.866L35.576,20.89L26.683,5.158c-0.072-0.123-0.53-0.916-0.587-0.995
					c-0.337-0.473-0.672-0.788-1.107-0.905c-0.776-0.208-1.431,0.161-2.024,1.158C22.958,4.427,22.954,4.426,22.949,4.435z"/>
				
					<radialGradient id="SVGID_17_" cx="27.207" cy="43.0752" r="26.725" gradientTransform="matrix(1.2347 5.000000e-004 -5.000000e-004 1.2296 7.0533 -17.0753)" gradientUnits="userSpaceOnUse">
					<stop  offset="0.0848" style="stop-color:#DE9D17"/>
					<stop  offset="1" style="stop-color:#DEC60E"/>
				</radialGradient>
				<path fill="url(#SVGID_17_)" d="M22.967,4.442c-0.004,0.009-2.416,4.2-3.012,5.237c-0.298,0.518-5.585,9.663-6.219,10.752
					c-0.605,1.041-8.609,14.874-9.634,16.624c-0.21,0.361-0.349,0.71-0.414,1.036c-0.154,0.764,0.118,1.376,0.76,1.725
					c0.157,0.085,0.335,0.165,0.548,0.212c0.095,0.162,2.141,0.161,2.418,0.16h0.294l16.687,0.002l16.604,0.003
					c0.335,0,2.704-0.015,2.805-0.186c1.039-0.168,1.49-0.815,1.338-1.76c0-0.068-0.036-0.189-0.048-0.26
					c-0.035-0.214-0.228-0.633-0.365-0.871l-9.177-16.232L26.688,5.208c-0.06-0.103-0.534-0.926-0.58-0.992
					c-0.335-0.477-0.67-0.797-1.096-0.921c-0.767-0.224-1.441,0.137-2.029,1.124C22.977,4.431,22.973,4.433,22.967,4.442z"/>
				
					<radialGradient id="SVGID_18_" cx="26.7666" cy="43.2783" r="26.3727" gradientTransform="matrix(1.2493 5.000000e-004 -5.000000e-004 1.244 7.1853 -17.9888)" gradientUnits="userSpaceOnUse">
					<stop  offset="0.0848" style="stop-color:#E3A015"/>
					<stop  offset="1" style="stop-color:#E3CC0B"/>
				</radialGradient>
				<path fill="url(#SVGID_18_)" d="M22.984,4.45c-0.003,0.007-2.553,4.434-3.029,5.263c-0.238,0.414-5.742,9.935-6.249,10.805
					c-0.484,0.833-8.782,15.176-9.602,16.576c-0.211,0.363-0.346,0.714-0.403,1.038c-0.137,0.769,0.173,1.377,0.86,1.696
					c0.166,0.077,0.353,0.146,0.571,0.183c0.075,0.13,2.187,0.129,2.408,0.128h0.292l16.563,0.002l16.477,0.002
					c0.268,0.001,2.716-0.011,2.797-0.148c1.078-0.134,1.581-0.777,1.456-1.713c-0.001-0.072-0.031-0.188-0.044-0.263
					c-0.037-0.227-0.214-0.622-0.359-0.875l-9.194-16.263L26.695,5.258c-0.048-0.082-0.537-0.937-0.574-0.989
					c-0.335-0.479-0.667-0.807-1.083-0.938c-0.756-0.238-1.453,0.114-2.035,1.092C22.996,4.435,22.99,4.439,22.984,4.45z"/>
				
					<radialGradient id="SVGID_19_" cx="25.6865" cy="44.1348" r="26.0277" gradientTransform="matrix(1.264 5.000000e-004 -5.000000e-004 1.2583 8.1403 -19.7237)" gradientUnits="userSpaceOnUse">
					<stop  offset="0.0848" style="stop-color:#E9A413"/>
					<stop  offset="1" style="stop-color:#E9D208"/>
				</radialGradient>
				<path fill="url(#SVGID_19_)" d="M23.002,4.458c-0.003,0.005-2.69,4.666-3.048,5.288c-0.179,0.311-5.899,10.205-6.279,10.858
					c-0.363,0.625-8.954,15.478-9.568,16.527c-0.212,0.365-0.342,0.716-0.392,1.041c-0.118,0.772,0.227,1.377,0.96,1.667
					c0.174,0.068,0.37,0.126,0.594,0.154c0.058,0.097,2.234,0.097,2.4,0.096h0.289l16.44,0.001l16.349,0.002
					c0.201,0,2.729-0.009,2.788-0.111c1.117-0.101,1.673-0.74,1.575-1.668c-0.001-0.076-0.025-0.185-0.039-0.265
					c-0.04-0.24-0.2-0.612-0.355-0.88l-9.211-16.293L26.702,5.308c-0.036-0.062-0.542-0.946-0.569-0.985
					c-0.337-0.479-0.663-0.817-1.07-0.955c-0.745-0.253-1.463,0.091-2.04,1.059C23.015,4.438,23.009,4.446,23.002,4.458z"/>
				
					<radialGradient id="SVGID_20_" cx="24.6328" cy="44.3213" r="25.6897" gradientTransform="matrix(1.2787 5.000000e-004 -5.000000e-004 1.2727 9.0943 -20.6381)" gradientUnits="userSpaceOnUse">
					<stop  offset="0.0848" style="stop-color:#EEA811"/>
					<stop  offset="1" style="stop-color:#EED905"/>
				</radialGradient>
				<path fill="url(#SVGID_20_)" d="M23.019,4.466c-0.001,0.003-2.826,4.898-3.064,5.313c-0.119,0.207-6.057,10.476-6.31,10.911
					c-0.242,0.417-9.128,15.778-9.536,16.479c-0.214,0.367-0.339,0.719-0.381,1.043c-0.102,0.777,0.283,1.377,1.061,1.638
					c0.183,0.062,0.388,0.107,0.617,0.126c0.038,0.065,2.28,0.064,2.391,0.064h0.287L24.4,40.042l16.221,0.001
					c0.134,0,2.74-0.006,2.78-0.074c1.156-0.067,1.764-0.702,1.693-1.622c-0.001-0.08-0.021-0.184-0.035-0.268
					c-0.042-0.253-0.186-0.602-0.35-0.884l-9.229-16.323L26.709,5.357c-0.023-0.041-0.545-0.956-0.563-0.982
					c-0.335-0.481-0.66-0.826-1.058-0.972c-0.734-0.268-1.475,0.068-2.047,1.026C23.033,4.443,23.026,4.452,23.019,4.466z"/>
				
					<radialGradient id="SVGID_21_" cx="24.877" cy="44.5039" r="25.3702" gradientTransform="matrix(1.2933 6.000000e-004 -6.000000e-004 1.287 8.405 -21.5491)" gradientUnits="userSpaceOnUse">
					<stop  offset="0.0848" style="stop-color:#F3AB0F"/>
					<stop  offset="1" style="stop-color:#F3DF03"/>
				</radialGradient>
				<path fill="url(#SVGID_21_)" d="M23.036,4.474c-0.001,0.002-2.964,5.132-3.083,5.339c-0.06,0.104-6.213,10.747-6.34,10.965
					c-0.121,0.208-9.299,16.08-9.503,16.431c-0.215,0.368-0.335,0.722-0.37,1.045c-0.083,0.781,0.338,1.382,1.161,1.609
					c0.191,0.053,0.404,0.088,0.641,0.098c0.02,0.032,2.326,0.032,2.382,0.031h0.285l16.194,0.001h16.092
					c0.067,0,2.752-0.003,2.771-0.037c1.195-0.033,1.855-0.664,1.812-1.575c-0.001-0.085-0.015-0.182-0.029-0.27
					c-0.045-0.268-0.173-0.592-0.345-0.89l-9.246-16.354l-8.742-15.46c-0.012-0.021-0.549-0.966-0.558-0.979
					c-0.329-0.488-0.657-0.836-1.046-0.988c-0.724-0.283-1.484,0.045-2.052,0.993C23.053,4.447,23.045,4.459,23.036,4.474z"/>
				<g>
					<g>
						<g>
							<g>
								<g>
									<g>
										<g>
											<g>
												<g>
													
														<radialGradient id="SVGID_22_" cx="23.8584" cy="44.6855" r="25.047" gradientTransform="matrix(1.308 6.000000e-004 -6.000000e-004 1.3014 9.36 -22.4645)" gradientUnits="userSpaceOnUse">
														<stop  offset="0.0848" style="stop-color:#F8AF0D"/>
														<stop  offset="1" style="stop-color:#F8E500"/>
													</radialGradient>
													<path fill="url(#SVGID_22_)" d="M4.112,37.246c-0.858,1.484-0.152,2.697,1.566,2.696h18.727h18.728
														c1.718,0,2.423-1.213,1.565-2.695l-9.264-16.384L26.171,4.48c-0.857-1.485-2.26-1.483-3.117,0.001l-9.471,16.382
														L4.112,37.246z"/>
												</g>
											</g>
										</g>
									</g>
								</g>
							</g>
						</g>
					</g>
				</g>
			</g>
		</g>
		<g display="none">
			<linearGradient id="SVGID_23_" gradientUnits="userSpaceOnUse" x1="23.7412" y1="31.4531" x2="25.7365" y2="17.3612">
				<stop  offset="0.0056" style="stop-color:#F8FFFF;stop-opacity:0.6"/>
				<stop  offset="0.0728" style="stop-color:#F8FEFA;stop-opacity:0.5663"/>
				<stop  offset="0.4592" style="stop-color:#F8FCE3;stop-opacity:0.3724"/>
				<stop  offset="0.703" style="stop-color:#F8FBDB;stop-opacity:0.25"/>
				<stop  offset="1" style="stop-color:#F8FBDB;stop-opacity:0.41"/>
			</linearGradient>
			<path display="inline" fill="url(#SVGID_23_)" d="M23.178,4.532L23.173,4.52c-0.217,0.386-1.746,2.968-12.396,20.95
				c4.187-1.178,8.938-1.802,13.823-1.802c4.879,0,9.615,0.64,13.797,1.813C37.599,24.139,25.985,4.575,25.985,4.575
				c-0.699-1.177-0.897-1.369-1.416-1.369C24.014,3.206,23.837,3.424,23.178,4.532z"/>
		</g>
		<g>
			<linearGradient id="SVGID_24_" gradientUnits="userSpaceOnUse" x1="24.3047" y1="3.0439" x2="24.6797" y2="26.169">
				<stop  offset="0.0056" style="stop-color:#FFFFDC"/>
				<stop  offset="0.0086" style="stop-color:#FFFFDB"/>
				<stop  offset="0.338" style="stop-color:#FFFAA8"/>
				<stop  offset="0.6248" style="stop-color:#FFF682"/>
				<stop  offset="0.8551" style="stop-color:#FFF46B"/>
				<stop  offset="1" style="stop-color:#FFF363"/>
			</linearGradient>
			<path fill="url(#SVGID_24_)" d="M23.268,5.078l-0.005-0.013c-0.217,0.386-1.746,2.968-12.396,20.95
				c4.187-1.178,8.938-1.802,13.823-1.802c4.879,0,9.615,0.64,13.797,1.813C37.688,24.685,26.075,5.121,26.075,5.121
				c-0.699-1.177-0.897-1.369-1.416-1.369C24.104,3.752,23.927,3.97,23.268,5.078z"/>
		</g>
	</g>
	<g>
		
			<radialGradient id="SVGID_25_" cx="27.7715" cy="36.918" r="8.2013" gradientTransform="matrix(0.894 0.4481 -0.4598 0.9172 19.9195 -9.3887)" gradientUnits="userSpaceOnUse">
			<stop  offset="0" style="stop-color:#808080"/>
			<stop  offset="0.7576" style="stop-color:#000000"/>
		</radialGradient>
		<ellipse fill="url(#SVGID_25_)" stroke="#666666" stroke-width="0.75" cx="24.358" cy="34.833" rx="3.223" ry="3.097"/>
		<linearGradient id="SVGID_26_" gradientUnits="userSpaceOnUse" x1="19.9482" y1="10.9424" x2="30.8844" y2="31.5949">
			<stop  offset="0" style="stop-color:#838383"/>
			<stop  offset="0.5394" style="stop-color:#1A1A1A"/>
			<stop  offset="0.9879" style="stop-color:#999999"/>
		</linearGradient>
		<polygon fill="url(#SVGID_26_)" stroke="#666666" stroke-width="0.75" points="21.007,11.359 27.71,11.359 26.952,28.859 
			21.895,28.859 		"/>
	</g>
</g>
</svg>
